<svg version="1.1" width="192px" height="192px" viewBox="0 0 192 192" xmlns="http://www.w3.org/2000/svg">
  <rect x="0" y="0" width="192" height="192" fill="#f0db4f" stroke="none" />
  <path shape-rendering="geometricPrecision" d="M 143.86875,131.78375 C 145.57125,131.27375 147.3825,131 149.25,131 159.59625,131 168,139.4 168,149.75001 168,160.1 159.59625,168.5 149.25,168.5 c -10.35,0 -18.75,-8.4 -18.75,-18.74999 0,-7.14751 4.005,-13.36501 9.89625,-16.53001 l -1.60875,-3.89625 -16.85251,22.30126 h -6.52875 C 114.465,161.09375 106.46251,168.5 96.750007,168.5 86.399997,168.5 78,160.1 78,149.75001 78,139.4 86.399997,131 96.750007,131 c 2.38124,0 4.665003,0.44626 6.761253,1.26 l 4.42873,-8.74125 -1.73248,-3.76875 h -3.8325 c -1.03875,0 -1.87501,-0.84 -1.87501,-1.875 0,-0.89625 0.70876,-1.875 1.87501,-1.875 h 9.34123 c 0.89625,0 1.87501,0.70875 1.87501,1.875 0,1.16625 -0.975,1.875 -1.87501,1.875 h -1.37999 l 1.7625,3.75001 h 24.315 L 134.835,119.75 h -6.21 c -1.03875,0 -1.875,-0.84 -1.875,-1.875 0,-1.16625 0.97125,-1.875 1.875,-1.875 h 8.7375 z m -42.06375,3.84 c -1.57875,-0.56625 -3.281253,-0.87374 -5.054993,-0.87374 -8.28,0 -15.000007,6.72 -15.000007,15 0,8.27999 6.720007,14.99999 15.000007,14.99999 7.642503,0 13.957493,-5.73 14.883743,-13.12499 H 99.997507 c -0.6525,1.12124 -1.86375,1.87499 -3.2475,1.87499 -2.07,0 -3.75,-1.68 -3.75,-3.74999 0,-1.99875 1.57124,-3.6375 3.54375,-3.7425 z m 40.03125,1.08375 c -4.53,2.58375 -7.58625,7.45876 -7.58625,13.04251 0,8.27999 6.72,14.99999 15,14.99999 8.28001,0 15.00001,-6.72 15.00001,-14.99999 0,-8.28 -6.72,-15 -15.00001,-15 -1.365,0 -2.685,0.18375 -3.94125,0.52499 l 4.4325,10.75875 c 1.84125,0.24 3.25875,1.81501 3.25875,3.71626 0,2.06999 -1.68375,3.74999 -3.75,3.74999 -2.07,0 -3.75,-1.68 -3.75,-3.74999 0,-0.85876 0.28875,-1.65001 0.77625,-2.28376 z m -36.68624,0.61876 -5.261253,10.37249 0.10871,0.17625 h 11.636243 c -0.55124,-4.38375 -2.9925,-8.18625 -6.48374,-10.54874 m 1.70249,-3.36751 c 4.70251,3.01501 7.9725,8.07 8.55375,13.91625 h 3.73875 l -9.2025,-20.01 z M 135.66371,127.25 h -21.89625 l 8.295,17.98876 z" />
</svg>